<?xml version="1.0" encoding="utf-8"?>
<!-- Generator: Adobe Illustrator 27.1.1, SVG Export Plug-In . SVG Version: 6.00 Build 0)  -->
<svg version="1.1" id="Layer_1" xmlns="http://www.w3.org/2000/svg" xmlns:xlink="http://www.w3.org/1999/xlink" x="0px" y="0px"
	 viewBox="0 0 1383 180" style="enable-background:new 0 0 1383 180;" xml:space="preserve">
<style type="text/css">
	.st0{fill:#FFFFFF;}
</style>
<g>
	<path class="st0" d="M41.8,51.6H48c6.2,0,8.8,1.4,10.6,2.6c1.9,1.2,7.1,5.1,10.1,16.7h2V49.2H0.6v21.7h2c3-11.6,8.2-15.5,10.1-16.7
		c1.9-1.2,4.4-2.6,10.6-2.6h6.2v77H16.9v2.4h37.5v-2.4H41.8V51.6z"/>
	<path class="st0" d="M1098,51.6h6.2c6.2,0,8.8,1.4,10.6,2.6c1.9,1.2,7.1,5.1,10.1,16.7h2V49.2h-70.1v21.7h2
		c3-11.6,8.2-15.5,10.1-16.7s4.4-2.6,10.6-2.6h6.2v77h-12.6v2.4h37.5v-2.4H1098V51.6z"/>
	<path class="st0" d="M135.2,95.8c0-11.8-8.4-15.7-17.4-15.7c-13.8,0-18.4,10.4-19.2,11.7V48.1H79.3v2.4H88v78.1h-8.8v2.4h28.2v-2.4
		h-8.8v-25.3c0-12.3,8.4-20.8,17.7-20.8c8.1,0,8.2,8.2,8.2,9.7v36.4h-8.8v2.4H144v-2.4h-8.8V95.8z"/>
	<path class="st0" d="M605.3,95.8c0-11.8-8.4-15.7-17.4-15.7c-13.8,0-18.4,10.4-19.2,11.7V48.1h-19.4v2.4h8.8v78.1h-8.8v2.4h28.2
		v-2.4h-8.8v-25.3c0-12.3,8.4-20.8,17.7-20.8c8.1,0,8.2,8.2,8.2,9.7v36.4h-8.8v2.4H614v-2.4h-8.8L605.3,95.8L605.3,95.8z"/>
	<path class="st0" d="M175.6,79.9c-15.5,0-26,13.9-26,26.6c0,16.5,12,26.2,26.7,26.2c13.8,0,18.1-9.1,19.5-13.5
		c0.1-0.4,0.4-1.4,0.4-1.4l-2.5-0.5l-0.4,1.3c-1.1,2.9-3.6,11.7-16.8,11.7c-12.9,0-14.6-11.9-14.6-22.5c0-1.2,0.1-4.3,0.1-4.9h35
		C197,84.6,183.1,79.9,175.6,79.9z M175.2,82.4c11,0,9.7,11.3,9.4,18.1h-22.5C162.8,92.3,164.6,82.4,175.2,82.4z"/>
	<path class="st0" d="M322.5,79.9c-15.5,0-26,13.9-26,26.6c0,16.5,12,26.2,26.7,26.2c13.8,0,18.1-9.1,19.5-13.5
		c0.1-0.4,0.4-1.4,0.4-1.4l-2.5-0.5l-0.4,1.3c-1.1,2.9-3.6,11.7-16.8,11.7c-12.9,0-14.6-11.9-14.6-22.5c0-1.2,0.1-4.3,0.1-4.9H344
		C343.9,84.6,330,79.9,322.5,79.9z M322,82.4c11,0,9.7,11.3,9.4,18.1H309C309.6,92.3,311.5,82.4,322,82.4z"/>
	<path class="st0" d="M1008,79.9c-15.5,0-26,13.9-26,26.6c0,16.5,12,26.2,26.7,26.2c13.8,0,18.1-9.1,19.5-13.5
		c0.1-0.4,0.4-1.4,0.4-1.4l-2.5-0.5l-0.4,1.3c-1.1,2.9-3.6,11.7-16.8,11.7c-12.9,0-14.6-11.9-14.6-22.5c0-1.2,0.1-4.3,0.1-4.9h35.1
		C1029.4,84.6,1015.5,79.9,1008,79.9z M1007.6,82.4c11,0,9.7,11.3,9.4,18.1h-22.5C995.1,92.3,997,82.4,1007.6,82.4z"/>
	<path class="st0" d="M277.4,50.4c-3.6-1-7.5-1.2-12.1-1.2h-34.5v2.4h12.6v77h-12.6v2.4h37.5v-2.4h-12.6V92.8h8.8
		c4-0.1,7.8-0.6,11.4-1.5c4.4-1.1,20-6.2,20-20.5C295.9,56.7,282.1,51.6,277.4,50.4z M282,70.9c0,18.3-12.4,19.5-17.5,19.5h-8.8
		V51.6h8.2C272.8,51.6,282,52.6,282,70.9z"/>
	<polygon class="st0" points="416,83.8 426.5,83.8 412.9,117.5 399.4,81.4 395.8,81.4 380.5,117.8 368.3,83.8 377.5,83.8 
		377.5,81.4 349.3,81.4 349.3,83.8 357.1,83.8 374.8,132.9 376.8,132.9 393,94.2 407.5,132.9 409.6,132.9 429.2,83.8 435.4,83.8 
		435.4,81.4 416,81.4 	"/>
	<path class="st0" d="M506.9,130.2c-8.8,0-14.8-2.9-18.1-7.2c-7.9-9.9-8-25.4-8-32.8c0-19.7,3.5-40.8,26.1-40.8
		c22.2,0,24.5,21.7,24.8,23.2h2V49h-2.3c-0.6,0.8-1.3,2.4-4.8,2.4c-4.8,0-8.8-4.4-18.7-4.4c-23.4,0-41.1,20.2-41.1,43.2
		c0,23.4,18.1,42.4,40.3,42.4c10.8,0,16.5-4.1,21.1-4.1c3.1,0,3.8,1.2,4.8,2.4h2.3v-25h-2c-0.4,1.3-2.7,12.5-7.4,17.2
		C524,125,519.8,130.2,506.9,130.2z"/>
	<path class="st0" d="M673.3,127.8c-0.8,0.6-2.6,1.7-5,1.7c-3.6,0-3.6-3.1-3.6-5.2V96.1c0-7.5-3.8-16.1-18.9-16.1
		c-11.7,0-18.2,6-18.2,13.1c0,1.8,0,5.3,6,5.3c5.3,0,5.1-4.2,4.5-7.1c-0.6-2.7-2.3-8.9,7.9-8.9c5.7,0,8.3,2,8.3,11.3
		c0,2.2-0.1,4-0.5,5.3c-1.2,4.2-4.6,5-11.6,7.4c-7.1,2.4-18.1,3.4-18.1,14.9c0,2.5,0.3,11.5,15.1,11.5c12.4,0,14.3-7.2,15.1-8.3
		c0.7,2.5,1.8,4.5,3.3,5.9c1.7,1.6,4.5,2.5,8.2,2.5c5.2,0,7.8-2.2,8.8-2.9l0.3-0.3l-1.4-1.9L673.3,127.8z M654.1,104v10.1
		c0,15.3-8.8,15.4-11.2,15.4c-1.8,0-8,0-8-9.6c0-7.6,5.8-9.8,7.5-10.5C646.4,107.7,652.6,105.9,654.1,104z"/>
	<path class="st0" d="M866.7,127.8c-0.8,0.6-2.6,1.7-5,1.7c-3.6,0-3.6-3.1-3.6-5.2V96.1c0-7.5-3.8-16.1-18.9-16.1
		c-11.7,0-18.2,6-18.2,13.1c0,1.5,0.3,2.8,1,3.8s2.3,1.6,5,1.6c1.5,0,2.7-0.4,3.6-1.2c1.7-1.6,1.4-3.4,0.9-5.9
		c-0.5-2.7-2.3-8.9,7.9-8.9c5.7,0,8.3,2,8.3,11.3c0,2.2-0.1,4-0.5,5.3c-1.2,4.2-4.6,5-11.6,7.4c-7.1,2.4-18.1,3.4-18.1,14.9
		c0,2.5,0.3,11.5,15.1,11.5c12.4,0,14.3-7.2,15.1-8.3c0.7,2.5,1.8,4.5,3.3,5.9c1.7,1.6,4.5,2.5,8.2,2.5c5.2,0,7.8-2.2,8.8-2.9
		l0.3-0.3l-1.4-1.9L866.7,127.8z M847.5,104v10.1c0,15.3-8.8,15.4-11.2,15.4c-1.8,0-8,0-8-9.6c0-7.6,5.8-9.8,7.5-10.5
		C839.8,107.7,846,105.9,847.5,104z"/>
	<path class="st0" d="M717.4,80.1c-9.8,0-13.9,8.6-14.7,11.2v-10h-19.2v2.4h8.8v44.8h-8.8v2.4h29.3v-2.4h-9.9V103
		c0-12.7,7.2-19.7,11.4-19.7c2.4,0,3.6,1,3.6,3.2c0,3.8-1.5,3.6-1.5,6.6s3,3.6,5.4,3.6c5.1,0,6.1-3.3,6.1-6.7
		C727.9,84.1,723.6,80.1,717.4,80.1z"/>
	<path class="st0" d="M1162.3,80.1c-9.8,0-13.9,8.6-14.7,11.2v-10h-19.2v2.4h8.8v44.8h-8.8v2.4h29.3v-2.4h-9.9V103
		c0-12.7,7.2-19.7,11.4-19.7c2.4,0,3.6,1,3.6,3.2c0,3.8-1.5,3.6-1.5,6.6s3,3.6,5.4,3.6c5.1,0,6.1-3.3,6.1-6.7
		C1172.9,84.1,1168.6,80.1,1162.3,80.1z"/>
	<polygon class="st0" points="754.8,81.4 735.4,81.4 735.4,83.8 744.2,83.8 744.2,128.7 735.4,128.7 735.4,131.1 763.6,131.1 
		763.6,128.7 754.8,128.7 	"/>
	<path class="st0" d="M804.9,121c-0.4,2.4-2.7,9.2-9.1,9.2c-6.5,0-6.4-7.5-6.4-9.6V83.8h16.2v-2.4h-16.2V65.8h-10.6v15.6H770v2.4
		h8.8v35.8c0,4.1,0.7,13.1,15.7,13.1c11.1,0,12.7-9.9,12.9-10.9l0.1-0.4l-2.4-0.9L804.9,121z"/>
	<path class="st0" d="M1334.5,121c-0.4,2.4-2.7,9.2-9.1,9.2c-6.5,0-6.4-7.5-6.4-9.6V83.8h16.2v-2.4H1319V65.8h-10.6v15.6h-8.8v2.4
		h8.8v35.8c0,4.1,0.7,13.1,15.7,13.1c11.1,0,12.7-9.9,12.9-10.9l0.1-0.4l-2.4-0.9L1334.5,121z"/>
	<path class="st0" d="M911.3,79.9c-10.9,0-14.3,7.4-15.4,9.4V48.1h-19.4v2.4h8.8v78.1h-8.8v2.4h19.2v-8.6
		c0.8,2.2,4.5,10.2,14.8,10.2c13.8,0,25.2-13,25.2-26.7C935.8,92,924.4,79.9,911.3,79.9z M923.6,104.6c0,3.9-0.2,7.5-0.3,10.7
		c-0.3,5.4-1.4,14.9-12.8,14.9c-3.1,0-14.5,0.2-14.5-21.9c0-3,0.1-6.4,0.4-10.3c0.6-10,5.7-15.7,14.6-15.7
		C922.3,82.4,923.6,93.1,923.6,104.6z"/>
	<polygon class="st0" points="963.2,48.1 943.8,48.1 943.8,50.6 952.5,50.6 952.5,128.7 943.8,128.7 943.8,131.1 971.9,131.1 
		971.9,128.7 963.2,128.7 	"/>
	<path class="st0" d="M1234.2,81.4h-19.3v2.4h8.7v26c0,11.8-8.1,20.4-14.8,20.4c-3.1,0-9.3-0.5-9.3-13.5V81.4h-19.4v2.4h8.8v31.9
		c0,6.1,1.5,10.2,4.2,12.6c4.1,3.5,8.6,4.4,13.5,4.4c12.3,0,16.3-10.7,17.2-12.1v10.5h19.2v-2.4h-8.8L1234.2,81.4L1234.2,81.4z"/>
	<path class="st0" d="M1277.9,102.3c-5.3-1.7-8.3-2.7-8.3-2.7c-3.3-1-5.8-2.2-7.5-3.4c-1.6-1.2-2.4-2.9-2.4-5.2
		c0-5.7,4.5-8.6,11.1-8.6c7.1,0,9.5,5.4,10.5,7.8c0.9,1.9,1.9,5.1,1.9,5.1h2V81.4h-1.9c-0.1,0.2-0.3,0.9-1.6,0.9
		c-0.8,0-1.4-0.1-2-0.4c-3.2-1.3-5.1-2-8.9-2c-10.5,0-16.8,7.5-16.8,15.5c0,9.6,5.9,12,8.6,13.2c1.3,0.6,11.9,4.2,11.9,4.2
		c1.9,0.7,3.6,1.6,5.1,2.7c1.4,1.1,2.1,3,2.1,5.8c0,3.2-0.9,5.5-2.7,6.9c-1.8,1.4-3.9,2.1-6.2,2.1c-9.8,0-13.7-6.4-15.6-10.2
		c-0.9-1.8-2.1-5.8-2.1-5.8h-2v16.8h1.9c0.5-0.8,0.7-1.6,2.5-1.6c3.3,0,7.6,3.2,14.5,3.2c11.4,0,18.5-7.7,18.5-16.6
		C1290.4,107.4,1283,103.9,1277.9,102.3z"/>
	<path class="st0" d="M1369.6,102.3c-5.3-1.7-8.3-2.7-8.3-2.7c-3.3-1-5.8-2.2-7.5-3.4c-1.6-1.2-2.4-2.9-2.4-5.2
		c0-5.7,4.5-8.6,11.1-8.6c7.1,0,9.5,5.4,10.5,7.8c0.9,1.9,1.9,5.1,1.9,5.1h2V81.4h-1.9c-0.1,0.2-0.3,0.9-1.6,0.9
		c-0.8,0-1.4-0.1-2-0.4c-3.2-1.3-5.1-2-8.9-2c-10.5,0-16.8,7.5-16.8,15.5c0,9.6,5.9,12,8.6,13.2c1.3,0.6,11.9,4.2,11.9,4.2
		c1.9,0.7,3.6,1.6,5.1,2.7c1.4,1.1,2.1,3,2.1,5.8c0,3.2-0.9,5.5-2.7,6.9c-1.8,1.4-3.9,2.1-6.2,2.1c-9.8,0-13.7-6.4-15.6-10.2
		c-0.9-1.8-2.1-5.8-2.1-5.8h-2v16.8h1.9c0.5-0.8,0.7-1.6,2.5-1.6c3.3,0,7.6,3.2,14.5,3.2c11.4,0,18.5-7.7,18.5-16.6
		C1382.1,107.4,1374.7,103.9,1369.6,102.3z"/>
	<circle class="st0" cx="748" cy="55.3" r="6.5"/>
</g>
</svg>
