<?xml version="1.0" encoding="utf-8"?>
<!-- Generator: Adobe Illustrator 27.1.1, SVG Export Plug-In . SVG Version: 6.00 Build 0)  -->
<svg version="1.1" id="Layer_1" xmlns="http://www.w3.org/2000/svg" xmlns:xlink="http://www.w3.org/1999/xlink" x="0px" y="0px"
	 viewBox="0 0 213.4 98" style="enable-background:new 0 0 213.4 98;" xml:space="preserve">
<style type="text/css">
	.st0{fill:#296EC3;}
</style>
<g>
	<polygon class="st0" points="188.9,35.7 188.9,38.6 202.6,38.6 188.9,74.9 172.9,35.7 171.5,35.7 157.1,75.2 143.7,38.6 
		156.8,38.6 156.8,35.7 122.6,35.7 122.6,38.6 128.5,38.6 151.4,95.5 152.9,95.5 167.4,56.6 183.3,95.5 184.7,95.5 205.9,38.6 
		211.4,38.6 211.4,35.7 	"/>
	<path class="st0" d="M115.7,41.1c-4.8-4.4-11.3-6.6-19.4-6.6c-5.7,0-10.7,1.3-15,4s-7.7,6.4-10.1,11.2s-3.6,10.4-3.6,16.7
		c0,6,1.2,11.3,3.7,15.8c2.5,4.6,5.9,8.1,10.3,10.6s9.4,3.7,14.9,3.7c6.9,0,12.6-2,17.2-5.9c4-3.4,7.1-8.3,9.2-14.6l-2.8-0.7
		c-1.5,4.7-3.5,8.4-6.1,10.9c-3.5,3.3-6.2,4.4-10.9,4.4c-6.2,0-11.1-2.6-14.8-7.9c-3.5-5.1-5.3-12.1-5.4-21h40
		C123.2,55.2,122.4,47.5,115.7,41.1z M107.5,58.9H83c0.4-6.1,1.4-11.3,3.1-14.8c1.8-3.7,5.5-6.8,10.1-6.8s7.7,3.2,9.2,6.8
		C107,47.9,107.5,52.7,107.5,58.9z"/>
	<path class="st0" d="M39.4,11.4h-39v2.9h10v78.3H0.3v2.9H38v-2.9H25.6V57.1h13.8c16.4,0,28.7-8.4,28.7-22.9S55.7,11.4,39.4,11.4z
		 M25.6,14.3h10.5c6.8,0,15.1,4,15.1,20.2c0,17.8-10.1,19.8-16.7,19.8h-8.9C25.6,54.3,25.6,14.3,25.6,14.3z"/>
</g>
</svg>
