<?xml version="1.0" encoding="utf-8"?>
<!-- Generator: Adobe Illustrator 25.4.1, SVG Export Plug-In . SVG Version: 6.00 Build 0)  -->
<svg version="1.1" xmlns="http://www.w3.org/2000/svg" xmlns:xlink="http://www.w3.org/1999/xlink" x="0px" y="0px"
	 viewBox="0 0 990 557" enable-background="new 0 0 990 557" xml:space="preserve">
<g id="layer-1" display="none">
	<g display="inline">
		<rect x="521.007" y="187.356" fill="none" width="365.023" height="289.674"/>
		<text transform="matrix(1 0 0 1 521.0068 238.4756)"><tspan x="0" y="0" fill="#FFFFFF" font-family="'MyriadPro-Regular'" font-size="72px">Background </tspan><tspan x="0" y="86.4" fill="#FFFFFF" font-family="'MyriadPro-Regular'" font-size="72px">image</tspan></text>
		<text transform="matrix(1 0 0 1 370.7979 90.519)" font-family="'MyriadPro-Regular'" font-size="72px">Layer 1</text>
		<rect x="383" y="187" fill="none" stroke="#000000" stroke-width="6" stroke-miterlimit="10" width="187" height="134"/>
	</g>
</g>
<g id="layer-2" display="none">
	<g display="inline">
		<rect x="521.007" y="187.356" fill="none" width="365.023" height="289.674"/>
		<text transform="matrix(1 0 0 1 521.0068 238.4756)"><tspan x="0" y="0" fill="#FFFFFF" font-family="'MyriadPro-Regular'" font-size="72px">Background </tspan><tspan x="0" y="86.4" fill="#FFFFFF" font-family="'MyriadPro-Regular'" font-size="72px">image</tspan></text>
		<text transform="matrix(1 0 0 1 370.7979 90.519)" font-family="'MyriadPro-Regular'" font-size="72px">Layer 2</text>
		<rect x="441" y="187" fill="none" stroke="#000000" stroke-width="6" stroke-miterlimit="10" width="129" height="92.438"/>
		<circle fill="none" stroke="#000000" stroke-width="6" stroke-miterlimit="10" cx="762" cy="351" r="103"/>
	</g>
</g>
<g id="layer-3">
	<g>
		<text transform="matrix(1 0 0 1 370.7979 90.519)" font-family="'MyriadPro-Regular'" font-size="72px">Layer 3</text>
		
			<rect x="441" y="187" transform="matrix(0.7071 -0.7071 0.7071 0.7071 -16.8534 425.7508)" fill="none" stroke="#000000" stroke-width="6" stroke-miterlimit="10" width="129" height="92.438"/>
		<circle fill="none" stroke="#000000" stroke-width="6" stroke-miterlimit="10" cx="807" cy="306" r="58"/>
		<polygon fill="none" stroke="#000000" stroke-width="6" stroke-miterlimit="10" points="598.349,360 520.699,494.495 676,494.495 
					"/>
	</g>
</g>
</svg>
