<svg class="search-box__toggle js-toggle-quick-search" width="20" height="20" xmlns="http://www.w3.org/2000/svg" xmlns:xlink="http://www.w3.org/1999/xlink">
        <use xlink:href="#search-a" transform="translate(1.11 1.11)" fill="#296EC3"></use>
        <use xlink:href="#search-b" transform="translate(13.33 13.333)" fill="#296EC3"></use>
        <defs>
            <path id="search-a" d="M7.22 15.44c4.54 0 8.22-3.68 8.22-8.22h-2c0 3.44-2.78 6.22-6.22 6.22v2zm8.22-8.22C15.44 2.68 11.76-1 7.22-1v2c3.44 0 6.22 2.8 6.22 6.22h2zM7.22-1C2.68-1-1 2.68-1 7.22h2C1 3.8 3.8 1 7.22 1v-2zM-1 7.22c0 4.54 3.68 8.22 8.22 8.22v-2C3.8 13.44 1 10.66 1 7.22h-2z"></path>
            <path id="search-b" d="M1.26-.15c-.4-.4-1.02-.4-1.4 0-.4.4-.4 1.02 0 1.4l1.4-1.4zM4.3 5.7c.38.4 1.02.4 1.4 0 .4-.38.4-1.02 0-1.4L4.3 5.7zM-.16 1.27L4.3 5.7l1.4-1.4L1.27-.16l-1.4 1.4z"></path>
        </defs>
    </svg>